<?xml version="1.0" encoding="utf-8"?>
<!DOCTYPE svg PUBLIC "-//W3C//DTD SVG 1.1//EN" "http://www.w3.org/Graphics/SVG/1.1/DTD/svg11.dtd">
<svg style="width:308px;height:308px;" version="1.1" id="图形" xmlns="http://www.w3.org/2000/svg" xmlns:xlink="http://www.w3.org/1999/xlink" x="0px" y="0px" width="1024px" height="1024px" viewBox="0 0 1024 1024" enable-background="new 0 0 1024 1024" xml:space="preserve">
  <path class="svgpath" data-index="path_0" fill="#272636" d="M825.21868 379.58905 726.776167 103.554267c-2.308535-6.595813-7.585185-11.212882-13.851208-13.026731-9.316586-4.369726-20.694364-1.40161-26.4657 7.585185L527.829952 344.548792c-6.266023 9.728824-3.462802 22.755556 6.266023 29.021578 3.54525 2.226087 7.42029 3.380354 11.377778 3.380354 6.925604 0 13.686312-3.380354 17.6438-9.646377l109.655395-170.419324c-55.157488 382.227375-175.613527 551.987118-270.180998 627.261836-96.216425 76.593881-180.642834 68.101771-181.961997 67.936876-11.625121-1.484058-21.931079 6.760709-23.415137 18.220934-1.484058 11.460225 6.678261 22.013527 18.138486 23.497585 0.906924 0.082448 6.183575 0.742029 15.087923 0.742029 31.907246 0 110.067633-7.997424 196.472786-76.016747C528.736876 778.305958 658.262158 598.570048 715.315942 196.390338l70.410306 197.37971c3.050564 8.574557 11.130435 13.933655 19.78744 13.933655 2.308535 0 4.699517-0.412238 7.090499-1.236715C823.404831 402.591948 829.09372 390.554589 825.21868 379.58905z" />

</svg>
